<?xml version="1.0" encoding="UTF-8" standalone="no"?>
<!-- Created with Inkscape (http://www.inkscape.org/) -->

<svg
   width="210mm"
   height="297mm"
   viewBox="0 0 210 297"
   version="1.1"
   id="svg5"
   inkscape:version="1.2.1 (9c6d41e, 2022-07-14)"
   sodipodi:docname="banner.svg"
   xmlns:inkscape="http://www.inkscape.org/namespaces/inkscape"
   xmlns:sodipodi="http://sodipodi.sourceforge.net/DTD/sodipodi-0.dtd"
   xmlns="http://www.w3.org/2000/svg"
   xmlns:svg="http://www.w3.org/2000/svg">
  <sodipodi:namedview
     id="namedview7"
     pagecolor="#505050"
     bordercolor="#eeeeee"
     borderopacity="1"
     inkscape:showpageshadow="0"
     inkscape:pageopacity="0"
     inkscape:pagecheckerboard="0"
     inkscape:deskcolor="#505050"
     inkscape:document-units="mm"
     showgrid="false"
     inkscape:zoom="1.0741059"
     inkscape:cx="435.71124"
     inkscape:cy="955.67861"
     inkscape:window-width="1536"
     inkscape:window-height="1051"
     inkscape:window-x="0"
     inkscape:window-y="38"
     inkscape:window-maximized="0"
     inkscape:current-layer="layer1" />
  <defs
     id="defs2" />
  <g
     inkscape:label="Layer 1"
     inkscape:groupmode="layer"
     id="layer1">
    <g
       id="g3138">
      <rect
         style="font-variation-settings:'wght' 600;fill:none;stroke:#000000;stroke-width:5.29167;stroke-linejoin:miter;stroke-dasharray:none;stroke-opacity:1;paint-order:fill markers stroke"
         id="rect958"
         width="127.28262"
         height="99.975983"
         x="19.323816"
         y="76.501091"
         ry="0" />
      <g
         id="g2565"
         transform="translate(0,0.49265783)">
        <ellipse
           style="font-variation-settings:'wght' 600;fill:#000000;fill-opacity:1;stroke:none;stroke-width:5.29167;stroke-linejoin:round;stroke-dasharray:none;stroke-opacity:1;paint-order:fill markers stroke"
           id="path2517"
           cx="24.323271"
           cy="178.3421"
           rx="4.3706274"
           ry="4.6802492" />
        <ellipse
           style="font-variation-settings:'wght' 600;fill:#000000;fill-opacity:1;stroke:none;stroke-width:5.29167;stroke-linejoin:round;stroke-dasharray:none;stroke-opacity:1;paint-order:fill markers stroke"
           id="circle2519"
           cx="32.689899"
           cy="178.3421"
           rx="4.3706274"
           ry="4.6802492" />
        <ellipse
           style="font-variation-settings:'wght' 600;fill:#000000;fill-opacity:1;stroke:none;stroke-width:5.29167;stroke-linejoin:round;stroke-dasharray:none;stroke-opacity:1;paint-order:fill markers stroke"
           id="circle2521"
           cx="41.05653"
           cy="178.3421"
           rx="4.3706274"
           ry="4.6802492" />
        <ellipse
           style="font-variation-settings:'wght' 600;fill:#000000;fill-opacity:1;stroke:none;stroke-width:5.29167;stroke-linejoin:round;stroke-dasharray:none;stroke-opacity:1;paint-order:fill markers stroke"
           id="circle2523"
           cx="49.423161"
           cy="178.3421"
           rx="4.3706274"
           ry="4.6802492" />
        <ellipse
           style="font-variation-settings:'wght' 600;fill:#000000;fill-opacity:1;stroke:none;stroke-width:5.29167;stroke-linejoin:round;stroke-dasharray:none;stroke-opacity:1;paint-order:fill markers stroke"
           id="circle2525"
           cx="57.789791"
           cy="178.3421"
           rx="4.3706274"
           ry="4.6802492" />
        <ellipse
           style="font-variation-settings:'wght' 600;fill:#000000;fill-opacity:1;stroke:none;stroke-width:5.29167;stroke-linejoin:round;stroke-dasharray:none;stroke-opacity:1;paint-order:fill markers stroke"
           id="circle2527"
           cx="66.156418"
           cy="178.3421"
           rx="4.3706274"
           ry="4.6802492" />
        <ellipse
           style="font-variation-settings:'wght' 600;fill:#000000;fill-opacity:1;stroke:none;stroke-width:5.29167;stroke-linejoin:round;stroke-dasharray:none;stroke-opacity:1;paint-order:fill markers stroke"
           id="circle2529"
           cx="74.523048"
           cy="178.3421"
           rx="4.3706274"
           ry="4.6802492" />
        <ellipse
           style="font-variation-settings:'wght' 600;fill:#000000;fill-opacity:1;stroke:none;stroke-width:5.29167;stroke-linejoin:round;stroke-dasharray:none;stroke-opacity:1;paint-order:fill markers stroke"
           id="circle2531"
           cx="82.889679"
           cy="178.3421"
           rx="4.3706274"
           ry="4.6802492" />
        <ellipse
           style="font-variation-settings:'wght' 600;fill:#000000;fill-opacity:1;stroke:none;stroke-width:5.29167;stroke-linejoin:round;stroke-dasharray:none;stroke-opacity:1;paint-order:fill markers stroke"
           id="circle2533"
           cx="91.25631"
           cy="178.3421"
           rx="4.3706274"
           ry="4.6802492" />
        <ellipse
           style="font-variation-settings:'wght' 600;fill:#000000;fill-opacity:1;stroke:none;stroke-width:5.29167;stroke-linejoin:round;stroke-dasharray:none;stroke-opacity:1;paint-order:fill markers stroke"
           id="circle2535"
           cx="99.62294"
           cy="178.3421"
           rx="4.3706274"
           ry="4.6802492" />
        <ellipse
           style="font-variation-settings:'wght' 600;fill:#000000;fill-opacity:1;stroke:none;stroke-width:5.29167;stroke-linejoin:round;stroke-dasharray:none;stroke-opacity:1;paint-order:fill markers stroke"
           id="circle2537"
           cx="107.98957"
           cy="178.3421"
           rx="4.3706274"
           ry="4.6802492" />
        <ellipse
           style="font-variation-settings:'wght' 600;fill:#000000;fill-opacity:1;stroke:none;stroke-width:5.29167;stroke-linejoin:round;stroke-dasharray:none;stroke-opacity:1;paint-order:fill markers stroke"
           id="circle2539"
           cx="116.3562"
           cy="178.3421"
           rx="4.3706274"
           ry="4.6802492" />
        <ellipse
           style="font-variation-settings:'wght' 600;fill:#000000;fill-opacity:1;stroke:none;stroke-width:5.29167;stroke-linejoin:round;stroke-dasharray:none;stroke-opacity:1;paint-order:fill markers stroke"
           id="circle2541"
           cx="124.72283"
           cy="178.3421"
           rx="4.3706274"
           ry="4.6802492" />
        <ellipse
           style="font-variation-settings:'wght' 600;fill:#000000;fill-opacity:1;stroke:none;stroke-width:5.29167;stroke-linejoin:round;stroke-dasharray:none;stroke-opacity:1;paint-order:fill markers stroke"
           id="circle2543"
           cx="133.08948"
           cy="178.3421"
           rx="4.3706274"
           ry="4.6802492" />
        <ellipse
           style="font-variation-settings:'wght' 600;fill:#000000;fill-opacity:1;stroke:none;stroke-width:5.29167;stroke-linejoin:round;stroke-dasharray:none;stroke-opacity:1;paint-order:fill markers stroke"
           id="circle2545"
           cx="141.4561"
           cy="178.3421"
           rx="4.3706274"
           ry="4.6802492" />
      </g>
      <g
         id="g2620"
         transform="rotate(-90,86.830949,116.02089)">
        <ellipse
           style="font-variation-settings:'wght' 600;fill:#000000;fill-opacity:1;stroke:none;stroke-width:5.29167;stroke-linejoin:round;stroke-dasharray:none;stroke-opacity:1;paint-order:fill markers stroke"
           id="ellipse2590"
           cx="24.323271"
           cy="178.3421"
           rx="4.3706274"
           ry="4.6802492" />
        <ellipse
           style="font-variation-settings:'wght' 600;fill:#000000;fill-opacity:1;stroke:none;stroke-width:5.29167;stroke-linejoin:round;stroke-dasharray:none;stroke-opacity:1;paint-order:fill markers stroke"
           id="ellipse2592"
           cx="32.689899"
           cy="178.3421"
           rx="4.3706274"
           ry="4.6802492" />
        <ellipse
           style="font-variation-settings:'wght' 600;fill:#000000;fill-opacity:1;stroke:none;stroke-width:5.29167;stroke-linejoin:round;stroke-dasharray:none;stroke-opacity:1;paint-order:fill markers stroke"
           id="ellipse2594"
           cx="41.05653"
           cy="178.3421"
           rx="4.3706274"
           ry="4.6802492" />
        <ellipse
           style="font-variation-settings:'wght' 600;fill:#000000;fill-opacity:1;stroke:none;stroke-width:5.29167;stroke-linejoin:round;stroke-dasharray:none;stroke-opacity:1;paint-order:fill markers stroke"
           id="ellipse2596"
           cx="49.423161"
           cy="178.3421"
           rx="4.3706274"
           ry="4.6802492" />
        <ellipse
           style="font-variation-settings:'wght' 600;fill:#000000;fill-opacity:1;stroke:none;stroke-width:5.29167;stroke-linejoin:round;stroke-dasharray:none;stroke-opacity:1;paint-order:fill markers stroke"
           id="ellipse2598"
           cx="57.789791"
           cy="178.3421"
           rx="4.3706274"
           ry="4.6802492" />
        <ellipse
           style="font-variation-settings:'wght' 600;fill:#000000;fill-opacity:1;stroke:none;stroke-width:5.29167;stroke-linejoin:round;stroke-dasharray:none;stroke-opacity:1;paint-order:fill markers stroke"
           id="ellipse2600"
           cx="66.156418"
           cy="178.3421"
           rx="4.3706274"
           ry="4.6802492" />
        <ellipse
           style="font-variation-settings:'wght' 600;fill:#000000;fill-opacity:1;stroke:none;stroke-width:5.29167;stroke-linejoin:round;stroke-dasharray:none;stroke-opacity:1;paint-order:fill markers stroke"
           id="ellipse2602"
           cx="74.523048"
           cy="178.3421"
           rx="4.3706274"
           ry="4.6802492" />
        <ellipse
           style="font-variation-settings:'wght' 600;fill:#000000;fill-opacity:1;stroke:none;stroke-width:5.29167;stroke-linejoin:round;stroke-dasharray:none;stroke-opacity:1;paint-order:fill markers stroke"
           id="ellipse2604"
           cx="82.889679"
           cy="178.3421"
           rx="4.3706274"
           ry="4.6802492" />
        <ellipse
           style="font-variation-settings:'wght' 600;fill:#000000;fill-opacity:1;stroke:none;stroke-width:5.29167;stroke-linejoin:round;stroke-dasharray:none;stroke-opacity:1;paint-order:fill markers stroke"
           id="ellipse2606"
           cx="91.25631"
           cy="178.3421"
           rx="4.3706274"
           ry="4.6802492" />
        <ellipse
           style="font-variation-settings:'wght' 600;fill:#000000;fill-opacity:1;stroke:none;stroke-width:5.29167;stroke-linejoin:round;stroke-dasharray:none;stroke-opacity:1;paint-order:fill markers stroke"
           id="ellipse2608"
           cx="99.62294"
           cy="178.3421"
           rx="4.3706274"
           ry="4.6802492" />
        <ellipse
           style="font-variation-settings:'wght' 600;fill:#000000;fill-opacity:1;stroke:none;stroke-width:5.29167;stroke-linejoin:round;stroke-dasharray:none;stroke-opacity:1;paint-order:fill markers stroke"
           id="ellipse2610"
           cx="107.98957"
           cy="178.3421"
           rx="4.3706274"
           ry="4.6802492" />
        <ellipse
           style="font-variation-settings:'wght' 600;fill:#000000;fill-opacity:1;stroke:none;stroke-width:5.29167;stroke-linejoin:round;stroke-dasharray:none;stroke-opacity:1;paint-order:fill markers stroke"
           id="ellipse2612"
           cx="116.3562"
           cy="178.3421"
           rx="4.3706274"
           ry="4.6802492" />
        <ellipse
           style="font-variation-settings:'wght' 600;fill:#000000;fill-opacity:1;stroke:none;stroke-width:5.29167;stroke-linejoin:round;stroke-dasharray:none;stroke-opacity:1;paint-order:fill markers stroke"
           id="ellipse2614"
           cx="124.72283"
           cy="178.3421"
           rx="4.3706274"
           ry="4.6802492" />
      </g>
      <g
         id="g2648"
         transform="rotate(-90,20.691635,182.40654)">
        <ellipse
           style="font-variation-settings:'wght' 600;fill:#000000;fill-opacity:1;stroke:none;stroke-width:5.29167;stroke-linejoin:round;stroke-dasharray:none;stroke-opacity:1;paint-order:fill markers stroke"
           id="ellipse2622"
           cx="24.323271"
           cy="178.3421"
           rx="4.3706274"
           ry="4.6802492" />
        <ellipse
           style="font-variation-settings:'wght' 600;fill:#000000;fill-opacity:1;stroke:none;stroke-width:5.29167;stroke-linejoin:round;stroke-dasharray:none;stroke-opacity:1;paint-order:fill markers stroke"
           id="ellipse2624"
           cx="32.689899"
           cy="178.3421"
           rx="4.3706274"
           ry="4.6802492" />
        <ellipse
           style="font-variation-settings:'wght' 600;fill:#000000;fill-opacity:1;stroke:none;stroke-width:5.29167;stroke-linejoin:round;stroke-dasharray:none;stroke-opacity:1;paint-order:fill markers stroke"
           id="ellipse2626"
           cx="41.05653"
           cy="178.3421"
           rx="4.3706274"
           ry="4.6802492" />
        <ellipse
           style="font-variation-settings:'wght' 600;fill:#000000;fill-opacity:1;stroke:none;stroke-width:5.29167;stroke-linejoin:round;stroke-dasharray:none;stroke-opacity:1;paint-order:fill markers stroke"
           id="ellipse2628"
           cx="49.423161"
           cy="178.3421"
           rx="4.3706274"
           ry="4.6802492" />
        <ellipse
           style="font-variation-settings:'wght' 600;fill:#000000;fill-opacity:1;stroke:none;stroke-width:5.29167;stroke-linejoin:round;stroke-dasharray:none;stroke-opacity:1;paint-order:fill markers stroke"
           id="ellipse2630"
           cx="57.789791"
           cy="178.3421"
           rx="4.3706274"
           ry="4.6802492" />
        <ellipse
           style="font-variation-settings:'wght' 600;fill:#000000;fill-opacity:1;stroke:none;stroke-width:5.29167;stroke-linejoin:round;stroke-dasharray:none;stroke-opacity:1;paint-order:fill markers stroke"
           id="ellipse2632"
           cx="66.156418"
           cy="178.3421"
           rx="4.3706274"
           ry="4.6802492" />
        <ellipse
           style="font-variation-settings:'wght' 600;fill:#000000;fill-opacity:1;stroke:none;stroke-width:5.29167;stroke-linejoin:round;stroke-dasharray:none;stroke-opacity:1;paint-order:fill markers stroke"
           id="ellipse2634"
           cx="74.523048"
           cy="178.3421"
           rx="4.3706274"
           ry="4.6802492" />
        <ellipse
           style="font-variation-settings:'wght' 600;fill:#000000;fill-opacity:1;stroke:none;stroke-width:5.29167;stroke-linejoin:round;stroke-dasharray:none;stroke-opacity:1;paint-order:fill markers stroke"
           id="ellipse2636"
           cx="82.889679"
           cy="178.3421"
           rx="4.3706274"
           ry="4.6802492" />
        <ellipse
           style="font-variation-settings:'wght' 600;fill:#000000;fill-opacity:1;stroke:none;stroke-width:5.29167;stroke-linejoin:round;stroke-dasharray:none;stroke-opacity:1;paint-order:fill markers stroke"
           id="ellipse2638"
           cx="91.25631"
           cy="178.3421"
           rx="4.3706274"
           ry="4.6802492" />
        <ellipse
           style="font-variation-settings:'wght' 600;fill:#000000;fill-opacity:1;stroke:none;stroke-width:5.29167;stroke-linejoin:round;stroke-dasharray:none;stroke-opacity:1;paint-order:fill markers stroke"
           id="ellipse2640"
           cx="99.62294"
           cy="178.3421"
           rx="4.3706274"
           ry="4.6802492" />
        <ellipse
           style="font-variation-settings:'wght' 600;fill:#000000;fill-opacity:1;stroke:none;stroke-width:5.29167;stroke-linejoin:round;stroke-dasharray:none;stroke-opacity:1;paint-order:fill markers stroke"
           id="ellipse2642"
           cx="107.98957"
           cy="178.3421"
           rx="4.3706274"
           ry="4.6802492" />
        <ellipse
           style="font-variation-settings:'wght' 600;fill:#000000;fill-opacity:1;stroke:none;stroke-width:5.29167;stroke-linejoin:round;stroke-dasharray:none;stroke-opacity:1;paint-order:fill markers stroke"
           id="ellipse2644"
           cx="116.3562"
           cy="178.3421"
           rx="4.3706274"
           ry="4.6802492" />
        <ellipse
           style="font-variation-settings:'wght' 600;fill:#000000;fill-opacity:1;stroke:none;stroke-width:5.29167;stroke-linejoin:round;stroke-dasharray:none;stroke-opacity:1;paint-order:fill markers stroke"
           id="ellipse2646"
           cx="124.72283"
           cy="178.3421"
           rx="4.3706274"
           ry="4.6802492" />
      </g>
      <rect
         style="font-variation-settings:'wght' 600;fill:#000000;fill-opacity:1;stroke:none;stroke-width:5.29167;stroke-linejoin:miter;stroke-dasharray:none;stroke-opacity:1;paint-order:fill markers stroke"
         id="rect2650"
         width="141.88545"
         height="13.794419"
         x="11.823788"
         y="62.813873" />
      <g
         id="g2900">
        <rect
           style="font-variation-settings:'wght' 600;fill:#000000;fill-opacity:1;stroke:none;stroke-width:2.64583;stroke-linejoin:miter;stroke-dasharray:none;stroke-opacity:1;paint-order:fill markers stroke"
           id="rect2810"
           width="126.61308"
           height="1.8520833"
           x="19.459984"
           y="85.229805" />
        <rect
           style="font-variation-settings:'wght' 600;fill:#000000;fill-opacity:1;stroke:none;stroke-width:2.64583;stroke-linejoin:miter;stroke-dasharray:none;stroke-opacity:1;paint-order:fill markers stroke"
           id="rect2863"
           width="126.61308"
           height="1.8520833"
           x="19.459984"
           y="92.044907" />
        <rect
           style="font-variation-settings:'wght' 600;fill:#000000;fill-opacity:1;stroke:none;stroke-width:2.64583;stroke-linejoin:miter;stroke-dasharray:none;stroke-opacity:1;paint-order:fill markers stroke"
           id="rect2865"
           width="126.61308"
           height="1.8520833"
           x="19.459984"
           y="98.860001" />
        <rect
           style="font-variation-settings:'wght' 600;fill:#000000;fill-opacity:1;stroke:none;stroke-width:2.64583;stroke-linejoin:miter;stroke-dasharray:none;stroke-opacity:1;paint-order:fill markers stroke"
           id="rect2867"
           width="126.61308"
           height="1.8520833"
           x="19.459984"
           y="105.6751" />
        <rect
           style="font-variation-settings:'wght' 600;fill:#000000;fill-opacity:1;stroke:none;stroke-width:2.64583;stroke-linejoin:miter;stroke-dasharray:none;stroke-opacity:1;paint-order:fill markers stroke"
           id="rect2869"
           width="126.61308"
           height="1.8520833"
           x="19.459984"
           y="112.4902" />
        <rect
           style="font-variation-settings:'wght' 600;fill:#000000;fill-opacity:1;stroke:none;stroke-width:2.64583;stroke-linejoin:miter;stroke-dasharray:none;stroke-opacity:1;paint-order:fill markers stroke"
           id="rect2871"
           width="126.61308"
           height="1.8520833"
           x="19.459984"
           y="119.30531" />
        <rect
           style="font-variation-settings:'wght' 600;fill:#000000;fill-opacity:1;stroke:none;stroke-width:2.64583;stroke-linejoin:miter;stroke-dasharray:none;stroke-opacity:1;paint-order:fill markers stroke"
           id="rect2873"
           width="126.61308"
           height="1.8520833"
           x="19.459984"
           y="126.1204" />
        <rect
           style="font-variation-settings:'wght' 600;fill:#000000;fill-opacity:1;stroke:none;stroke-width:2.64583;stroke-linejoin:miter;stroke-dasharray:none;stroke-opacity:1;paint-order:fill markers stroke"
           id="rect2875"
           width="126.61308"
           height="1.8520833"
           x="19.459984"
           y="132.9355" />
        <rect
           style="font-variation-settings:'wght' 600;fill:#000000;fill-opacity:1;stroke:none;stroke-width:2.64583;stroke-linejoin:miter;stroke-dasharray:none;stroke-opacity:1;paint-order:fill markers stroke"
           id="rect2877"
           width="126.61308"
           height="1.8520833"
           x="19.459984"
           y="139.7506" />
        <rect
           style="font-variation-settings:'wght' 600;fill:#000000;fill-opacity:1;stroke:none;stroke-width:2.64583;stroke-linejoin:miter;stroke-dasharray:none;stroke-opacity:1;paint-order:fill markers stroke"
           id="rect2879"
           width="126.61308"
           height="1.8520833"
           x="19.459984"
           y="146.5657" />
        <rect
           style="font-variation-settings:'wght' 600;fill:#000000;fill-opacity:1;stroke:none;stroke-width:2.64583;stroke-linejoin:miter;stroke-dasharray:none;stroke-opacity:1;paint-order:fill markers stroke"
           id="rect2881"
           width="126.61308"
           height="1.8520833"
           x="19.459984"
           y="153.3808" />
        <rect
           style="font-variation-settings:'wght' 600;fill:#000000;fill-opacity:1;stroke:none;stroke-width:2.64583;stroke-linejoin:miter;stroke-dasharray:none;stroke-opacity:1;paint-order:fill markers stroke"
           id="rect2883"
           width="126.61308"
           height="1.8520833"
           x="19.459984"
           y="160.19591" />
        <rect
           style="font-variation-settings:'wght' 600;fill:#000000;fill-opacity:1;stroke:none;stroke-width:2.64583;stroke-linejoin:miter;stroke-dasharray:none;stroke-opacity:1;paint-order:fill markers stroke"
           id="rect2885"
           width="126.61308"
           height="1.8520833"
           x="19.459984"
           y="167.011" />
      </g>
      <g
         id="g2928"
         transform="matrix(0,-0.82684828,1,0,-58.320663,194.86598)"
         style="stroke-width:1.09973">
        <rect
           style="font-variation-settings:'wght' 600;fill:#000000;fill-opacity:1;stroke:none;stroke-width:2.90971;stroke-linejoin:miter;stroke-dasharray:none;stroke-opacity:1;paint-order:fill markers stroke"
           id="rect2902"
           width="126.61308"
           height="1.8520833"
           x="19.459984"
           y="85.229805" />
        <rect
           style="font-variation-settings:'wght' 600;fill:#000000;fill-opacity:1;stroke:none;stroke-width:2.90971;stroke-linejoin:miter;stroke-dasharray:none;stroke-opacity:1;paint-order:fill markers stroke"
           id="rect2904"
           width="126.61308"
           height="1.8520833"
           x="19.459984"
           y="92.044907" />
        <rect
           style="font-variation-settings:'wght' 600;fill:#000000;fill-opacity:1;stroke:none;stroke-width:2.90971;stroke-linejoin:miter;stroke-dasharray:none;stroke-opacity:1;paint-order:fill markers stroke"
           id="rect2906"
           width="126.61308"
           height="1.8520833"
           x="19.459984"
           y="98.860001" />
        <rect
           style="font-variation-settings:'wght' 600;fill:#000000;fill-opacity:1;stroke:none;stroke-width:2.90971;stroke-linejoin:miter;stroke-dasharray:none;stroke-opacity:1;paint-order:fill markers stroke"
           id="rect2908"
           width="126.61308"
           height="1.8520833"
           x="19.459984"
           y="105.6751" />
        <rect
           style="font-variation-settings:'wght' 600;fill:#000000;fill-opacity:1;stroke:none;stroke-width:2.90971;stroke-linejoin:miter;stroke-dasharray:none;stroke-opacity:1;paint-order:fill markers stroke"
           id="rect2910"
           width="126.61308"
           height="1.8520833"
           x="19.459984"
           y="112.4902" />
        <rect
           style="font-variation-settings:'wght' 600;fill:#000000;fill-opacity:1;stroke:none;stroke-width:2.90971;stroke-linejoin:miter;stroke-dasharray:none;stroke-opacity:1;paint-order:fill markers stroke"
           id="rect2912"
           width="126.61308"
           height="1.8520833"
           x="19.459984"
           y="119.30531" />
        <rect
           style="font-variation-settings:'wght' 600;fill:#000000;fill-opacity:1;stroke:none;stroke-width:2.90971;stroke-linejoin:miter;stroke-dasharray:none;stroke-opacity:1;paint-order:fill markers stroke"
           id="rect2914"
           width="126.61308"
           height="1.8520833"
           x="19.459984"
           y="126.1204" />
        <rect
           style="font-variation-settings:'wght' 600;fill:#000000;fill-opacity:1;stroke:none;stroke-width:2.90971;stroke-linejoin:miter;stroke-dasharray:none;stroke-opacity:1;paint-order:fill markers stroke"
           id="rect2916"
           width="126.61308"
           height="1.8520833"
           x="19.459984"
           y="132.9355" />
        <rect
           style="font-variation-settings:'wght' 600;fill:#000000;fill-opacity:1;stroke:none;stroke-width:2.90971;stroke-linejoin:miter;stroke-dasharray:none;stroke-opacity:1;paint-order:fill markers stroke"
           id="rect2918"
           width="126.61308"
           height="1.8520833"
           x="19.459984"
           y="139.7506" />
        <rect
           style="font-variation-settings:'wght' 600;fill:#000000;fill-opacity:1;stroke:none;stroke-width:2.90971;stroke-linejoin:miter;stroke-dasharray:none;stroke-opacity:1;paint-order:fill markers stroke"
           id="rect2920"
           width="126.61308"
           height="1.8520833"
           x="19.459984"
           y="146.5657" />
        <rect
           style="font-variation-settings:'wght' 600;fill:#000000;fill-opacity:1;stroke:none;stroke-width:2.90971;stroke-linejoin:miter;stroke-dasharray:none;stroke-opacity:1;paint-order:fill markers stroke"
           id="rect2922"
           width="126.61308"
           height="1.8520833"
           x="19.459984"
           y="153.3808" />
        <rect
           style="font-variation-settings:'wght' 600;fill:#000000;fill-opacity:1;stroke:none;stroke-width:2.90971;stroke-linejoin:miter;stroke-dasharray:none;stroke-opacity:1;paint-order:fill markers stroke"
           id="rect2924"
           width="126.61308"
           height="1.8520833"
           x="19.459984"
           y="160.19591" />
        <rect
           style="font-variation-settings:'wght' 600;fill:#000000;fill-opacity:1;stroke:none;stroke-width:2.90971;stroke-linejoin:miter;stroke-dasharray:none;stroke-opacity:1;paint-order:fill markers stroke"
           id="rect2926"
           width="126.61308"
           height="1.8520833"
           x="19.459984"
           y="167.011" />
      </g>
      <g
         id="g2956"
         transform="matrix(0,-0.82684828,1,0,-31.224482,194.86598)"
         style="stroke-width:1.09973">
        <rect
           style="font-variation-settings:'wght' 600;fill:#000000;fill-opacity:1;stroke:none;stroke-width:2.90971;stroke-linejoin:miter;stroke-dasharray:none;stroke-opacity:1;paint-order:fill markers stroke"
           id="rect2930"
           width="126.61308"
           height="1.8520833"
           x="19.459984"
           y="85.229805" />
        <rect
           style="font-variation-settings:'wght' 600;fill:#000000;fill-opacity:1;stroke:none;stroke-width:2.90971;stroke-linejoin:miter;stroke-dasharray:none;stroke-opacity:1;paint-order:fill markers stroke"
           id="rect2932"
           width="126.61308"
           height="1.8520833"
           x="19.459984"
           y="92.044907" />
        <rect
           style="font-variation-settings:'wght' 600;fill:#000000;fill-opacity:1;stroke:none;stroke-width:2.90971;stroke-linejoin:miter;stroke-dasharray:none;stroke-opacity:1;paint-order:fill markers stroke"
           id="rect2934"
           width="126.61308"
           height="1.8520833"
           x="19.459984"
           y="98.860001" />
        <rect
           style="font-variation-settings:'wght' 600;fill:#000000;fill-opacity:1;stroke:none;stroke-width:2.90971;stroke-linejoin:miter;stroke-dasharray:none;stroke-opacity:1;paint-order:fill markers stroke"
           id="rect2936"
           width="126.61308"
           height="1.8520833"
           x="19.459984"
           y="105.6751" />
        <rect
           style="font-variation-settings:'wght' 600;fill:#000000;fill-opacity:1;stroke:none;stroke-width:2.90971;stroke-linejoin:miter;stroke-dasharray:none;stroke-opacity:1;paint-order:fill markers stroke"
           id="rect2938"
           width="126.61308"
           height="1.8520833"
           x="19.459984"
           y="112.4902" />
        <rect
           style="font-variation-settings:'wght' 600;fill:#000000;fill-opacity:1;stroke:none;stroke-width:2.90971;stroke-linejoin:miter;stroke-dasharray:none;stroke-opacity:1;paint-order:fill markers stroke"
           id="rect2940"
           width="126.61308"
           height="1.8520833"
           x="19.459984"
           y="119.30531" />
        <rect
           style="font-variation-settings:'wght' 600;fill:#000000;fill-opacity:1;stroke:none;stroke-width:2.90971;stroke-linejoin:miter;stroke-dasharray:none;stroke-opacity:1;paint-order:fill markers stroke"
           id="rect2942"
           width="126.61308"
           height="1.8520833"
           x="19.459984"
           y="126.1204" />
        <rect
           style="font-variation-settings:'wght' 600;fill:#000000;fill-opacity:1;stroke:none;stroke-width:2.90971;stroke-linejoin:miter;stroke-dasharray:none;stroke-opacity:1;paint-order:fill markers stroke"
           id="rect2944"
           width="126.61308"
           height="1.8520833"
           x="19.459984"
           y="132.9355" />
        <rect
           style="font-variation-settings:'wght' 600;fill:#000000;fill-opacity:1;stroke:none;stroke-width:2.90971;stroke-linejoin:miter;stroke-dasharray:none;stroke-opacity:1;paint-order:fill markers stroke"
           id="rect2946"
           width="126.61308"
           height="1.8520833"
           x="19.459984"
           y="139.7506" />
        <rect
           style="font-variation-settings:'wght' 600;fill:#000000;fill-opacity:1;stroke:none;stroke-width:2.90971;stroke-linejoin:miter;stroke-dasharray:none;stroke-opacity:1;paint-order:fill markers stroke"
           id="rect2948"
           width="126.61308"
           height="1.8520833"
           x="19.459984"
           y="146.5657" />
        <rect
           style="font-variation-settings:'wght' 600;fill:#000000;fill-opacity:1;stroke:none;stroke-width:2.90971;stroke-linejoin:miter;stroke-dasharray:none;stroke-opacity:1;paint-order:fill markers stroke"
           id="rect2950"
           width="126.61308"
           height="1.8520833"
           x="19.459984"
           y="153.3808" />
        <rect
           style="font-variation-settings:'wght' 600;fill:#000000;fill-opacity:1;stroke:none;stroke-width:2.90971;stroke-linejoin:miter;stroke-dasharray:none;stroke-opacity:1;paint-order:fill markers stroke"
           id="rect2952"
           width="126.61308"
           height="1.8520833"
           x="19.459984"
           y="160.19591" />
        <rect
           style="font-variation-settings:'wght' 600;fill:#000000;fill-opacity:1;stroke:none;stroke-width:2.90971;stroke-linejoin:miter;stroke-dasharray:none;stroke-opacity:1;paint-order:fill markers stroke"
           id="rect2954"
           width="126.61308"
           height="1.8520833"
           x="19.459984"
           y="167.011" />
      </g>
    </g>
    <path
       id="ellipse3142"
       style="font-variation-settings:'wght' 600;stroke-width:5.29167;stroke-linejoin:round;paint-order:fill markers stroke"
       d="M 13.055534 194.60001 L 13.055534 211.59639 L 13.441557 211.59639 A 4.6802492 4.3706274 0 0 0 16.505969 214.34454 A 4.6802492 4.3706274 0 0 0 13.178524 218.52775 A 4.6802492 4.3706274 0 0 0 16.507003 222.71095 A 4.6802492 4.3706274 0 0 0 13.178524 226.89468 A 4.6802492 4.3706274 0 0 0 16.505969 231.07788 A 4.6802492 4.3706274 0 0 0 13.178524 235.26109 A 4.6802492 4.3706274 0 0 0 16.507003 239.44482 A 4.6802492 4.3706274 0 0 0 13.178524 243.62802 A 4.6802492 4.3706274 0 0 0 16.505969 247.81123 A 4.6802492 4.3706274 0 0 0 13.178524 251.99444 A 4.6802492 4.3706274 0 0 0 16.507003 256.17764 A 4.6802492 4.3706274 0 0 0 13.178524 260.36085 A 4.6802492 4.3706274 0 0 0 16.507003 264.54406 A 4.6802492 4.3706274 0 0 0 13.178524 268.72778 A 4.6802492 4.3706274 0 0 0 16.505969 272.91099 A 4.6802492 4.3706274 0 0 0 13.178524 277.0942 A 4.6802492 4.3706274 0 0 0 16.507003 281.27792 A 4.6802492 4.3706274 0 0 0 13.178524 285.46113 A 4.6802492 4.3706274 0 0 0 16.505969 289.64434 A 4.6802492 4.3706274 0 0 0 13.178524 293.82754 A 4.6802492 4.3706274 0 0 0 16.507003 298.01075 A 4.6802492 4.3706274 0 0 0 13.178524 302.19447 A 4.6802492 4.3706274 0 0 0 16.507003 306.37716 A 4.6802492 4.3706274 0 0 0 13.178524 310.56089 A 4.6802492 4.3706274 0 0 0 17.858858 314.93168 A 4.6802492 4.3706274 0 0 0 21.769731 312.96126 A 4.3706274 4.6802492 0 0 0 25.555029 315.30117 A 4.3706274 4.6802492 0 0 0 29.738753 311.97424 A 4.3706274 4.6802492 0 0 0 33.921444 315.30117 A 4.3706274 4.6802492 0 0 0 38.105168 311.97372 A 4.3706274 4.6802492 0 0 0 42.288375 315.30117 A 4.3706274 4.6802492 0 0 0 46.471582 311.97372 A 4.3706274 4.6802492 0 0 0 50.654789 315.30117 A 4.3706274 4.6802492 0 0 0 54.838513 311.97321 A 4.3706274 4.6802492 0 0 0 59.021204 315.30117 A 4.3706274 4.6802492 0 0 0 63.204928 311.97372 A 4.3706274 4.6802492 0 0 0 67.388135 315.30117 A 4.3706274 4.6802492 0 0 0 71.571859 311.97424 A 4.3706274 4.6802492 0 0 0 75.754549 315.30117 A 4.3706274 4.6802492 0 0 0 79.938273 311.97372 A 4.3706274 4.6802492 0 0 0 84.12148 315.30117 A 4.3706274 4.6802492 0 0 0 88.304687 311.97372 A 4.3706274 4.6802492 0 0 0 92.487895 315.30117 A 4.3706274 4.6802492 0 0 0 96.671619 311.97321 A 4.3706274 4.6802492 0 0 0 100.85483 315.30117 A 4.3706274 4.6802492 0 0 0 105.03803 311.97372 A 4.3706274 4.6802492 0 0 0 109.22124 315.30117 A 4.3706274 4.6802492 0 0 0 113.40496 311.97424 A 4.3706274 4.6802492 0 0 0 117.58765 315.30117 A 4.3706274 4.6802492 0 0 0 121.77138 311.97372 A 4.3706274 4.6802492 0 0 0 125.95459 315.30117 A 4.3706274 4.6802492 0 0 0 130.13831 311.97424 A 4.3706274 4.6802492 0 0 0 134.321 315.30117 A 4.3706274 4.6802492 0 0 0 138.50472 311.97372 A 4.3706274 4.6802492 0 0 0 142.68793 315.30117 A 4.3706274 4.6802492 0 0 0 146.54764 312.81553 A 4.6802492 4.3706274 0 0 0 150.38359 314.68518 A 4.6802492 4.3706274 0 0 0 155.06392 310.31439 A 4.6802492 4.3706274 0 0 0 151.73647 306.13118 A 4.6802492 4.3706274 0 0 0 155.06392 301.94798 A 4.6802492 4.3706274 0 0 0 151.73802 297.76477 A 4.6802492 4.3706274 0 0 0 155.06392 293.58105 A 4.6802492 4.3706274 0 0 0 151.73802 289.39784 A 4.6802492 4.3706274 0 0 0 155.06392 285.21463 A 4.6802492 4.3706274 0 0 0 151.73802 281.03142 A 4.6802492 4.3706274 0 0 0 155.06392 276.84822 A 4.6802492 4.3706274 0 0 0 151.73699 272.66501 A 4.6802492 4.3706274 0 0 0 155.06392 268.48129 A 4.6802492 4.3706274 0 0 0 151.73647 264.29808 A 4.6802492 4.3706274 0 0 0 155.06392 260.11487 A 4.6802492 4.3706274 0 0 0 151.73854 255.93167 A 4.6802492 4.3706274 0 0 0 155.06392 251.74794 A 4.6802492 4.3706274 0 0 0 151.73802 247.56473 A 4.6802492 4.3706274 0 0 0 155.06392 243.38153 A 4.6802492 4.3706274 0 0 0 151.73647 239.1978 A 4.6802492 4.3706274 0 0 0 155.06392 235.01511 A 4.6802492 4.3706274 0 0 0 151.73802 230.83139 A 4.6802492 4.3706274 0 0 0 155.06392 226.64818 A 4.6802492 4.3706274 0 0 0 151.73751 222.46446 A 4.6802492 4.3706274 0 0 0 155.06392 218.28177 A 4.6802492 4.3706274 0 0 0 151.73854 214.09856 A 4.6802492 4.3706274 0 0 0 154.70322 211.59639 L 154.94093 211.59639 L 154.94093 210.91064 A 4.6802492 4.3706274 0 0 0 155.06392 209.91484 A 4.6802492 4.3706274 0 0 0 154.94093 208.91903 L 154.94093 194.60001 L 13.055534 194.60001 z M 23.894149 211.59639 L 28.140918 211.59639 L 28.140918 217.01569 L 23.894149 217.01569 L 23.894149 211.59639 z M 29.993001 211.59639 L 34.956006 211.59639 L 34.956006 217.01569 L 29.993001 217.01569 L 29.993001 211.59639 z M 36.808089 211.59639 L 41.771094 211.59639 L 41.771094 217.01569 L 36.808089 217.01569 L 36.808089 211.59639 z M 43.623177 211.59639 L 48.586182 211.59639 L 48.586182 217.01569 L 43.623177 217.01569 L 43.623177 211.59639 z M 50.438265 211.59639 L 55.40127 211.59639 L 55.40127 217.01569 L 50.438265 217.01569 L 50.438265 211.59639 z M 57.253353 211.59639 L 62.216357 211.59639 L 62.216357 217.01569 L 57.253353 217.01569 L 57.253353 211.59639 z M 64.068441 211.59639 L 69.031445 211.59639 L 69.031445 217.01569 L 64.068441 217.01569 L 64.068441 211.59639 z M 70.883529 211.59639 L 75.846533 211.59639 L 75.846533 217.01569 L 70.883529 217.01569 L 70.883529 211.59639 z M 77.698617 211.59639 L 82.661621 211.59639 L 82.661621 217.01569 L 77.698617 217.01569 L 77.698617 211.59639 z M 84.513704 211.59639 L 89.476709 211.59639 L 89.476709 217.01569 L 84.513704 217.01569 L 84.513704 211.59639 z M 91.328792 211.59639 L 96.291797 211.59639 L 96.291797 217.01569 L 91.328792 217.01569 L 91.328792 211.59639 z M 98.14388 211.59639 L 103.10688 211.59639 L 103.10688 217.01569 L 98.14388 217.01569 L 98.14388 211.59639 z M 104.95897 211.59639 L 109.92197 211.59639 L 109.92197 217.01569 L 104.95897 217.01569 L 104.95897 211.59639 z M 111.77406 211.59639 L 116.57273 211.59639 L 116.57273 217.01569 L 111.77406 217.01569 L 111.77406 211.59639 z M 118.42481 211.59639 L 123.38782 211.59639 L 123.38782 217.01569 L 118.42481 217.01569 L 118.42481 211.59639 z M 125.2399 211.59639 L 130.20291 211.59639 L 130.20291 217.01569 L 125.2399 217.01569 L 125.2399 211.59639 z M 132.05499 211.59639 L 137.01799 211.59639 L 137.01799 217.01569 L 132.05499 217.01569 L 132.05499 211.59639 z M 138.87008 211.59639 L 144.59531 211.59639 L 144.59531 217.01569 L 138.87008 217.01569 L 138.87008 211.59639 z M 23.894149 218.86778 L 28.140918 218.86778 L 28.140918 223.83078 L 23.894149 223.83078 L 23.894149 218.86778 z M 29.993001 218.86778 L 34.956006 218.86778 L 34.956006 223.83078 L 29.993001 223.83078 L 29.993001 218.86778 z M 36.808089 218.86778 L 41.771094 218.86778 L 41.771094 223.83078 L 36.808089 223.83078 L 36.808089 218.86778 z M 43.623177 218.86778 L 48.586182 218.86778 L 48.586182 223.83078 L 43.623177 223.83078 L 43.623177 218.86778 z M 50.438265 218.86778 L 55.40127 218.86778 L 55.40127 223.83078 L 50.438265 223.83078 L 50.438265 218.86778 z M 57.253353 218.86778 L 62.216357 218.86778 L 62.216357 223.83078 L 57.253353 223.83078 L 57.253353 218.86778 z M 64.068441 218.86778 L 69.031445 218.86778 L 69.031445 223.83078 L 64.068441 223.83078 L 64.068441 218.86778 z M 70.883529 218.86778 L 75.846533 218.86778 L 75.846533 223.83078 L 70.883529 223.83078 L 70.883529 218.86778 z M 77.698617 218.86778 L 82.661621 218.86778 L 82.661621 223.83078 L 77.698617 223.83078 L 77.698617 218.86778 z M 84.513704 218.86778 L 89.476709 218.86778 L 89.476709 223.83078 L 84.513704 223.83078 L 84.513704 218.86778 z M 91.328792 218.86778 L 96.291797 218.86778 L 96.291797 223.83078 L 91.328792 223.83078 L 91.328792 218.86778 z M 98.14388 218.86778 L 103.10688 218.86778 L 103.10688 223.83078 L 98.14388 223.83078 L 98.14388 218.86778 z M 104.95897 218.86778 L 109.92197 218.86778 L 109.92197 223.83078 L 104.95897 223.83078 L 104.95897 218.86778 z M 111.77406 218.86778 L 116.57273 218.86778 L 116.57273 223.83078 L 111.77406 223.83078 L 111.77406 218.86778 z M 118.42481 218.86778 L 123.38782 218.86778 L 123.38782 223.83078 L 118.42481 223.83078 L 118.42481 218.86778 z M 125.2399 218.86778 L 130.20291 218.86778 L 130.20291 223.83078 L 125.2399 223.83078 L 125.2399 218.86778 z M 132.05499 218.86778 L 137.01799 218.86778 L 137.01799 223.83078 L 132.05499 223.83078 L 132.05499 218.86778 z M 138.87008 218.86778 L 144.59531 218.86778 L 144.59531 223.83078 L 138.87008 223.83078 L 138.87008 218.86778 z M 23.894149 225.68287 L 28.140918 225.68287 L 28.140918 230.64587 L 23.894149 230.64587 L 23.894149 225.68287 z M 29.993001 225.68287 L 34.956006 225.68287 L 34.956006 230.64587 L 29.993001 230.64587 L 29.993001 225.68287 z M 36.808089 225.68287 L 41.771094 225.68287 L 41.771094 230.64587 L 36.808089 230.64587 L 36.808089 225.68287 z M 43.623177 225.68287 L 48.586182 225.68287 L 48.586182 230.64587 L 43.623177 230.64587 L 43.623177 225.68287 z M 50.438265 225.68287 L 55.40127 225.68287 L 55.40127 230.64587 L 50.438265 230.64587 L 50.438265 225.68287 z M 57.253353 225.68287 L 62.216357 225.68287 L 62.216357 230.64587 L 57.253353 230.64587 L 57.253353 225.68287 z M 64.068441 225.68287 L 69.031445 225.68287 L 69.031445 230.64587 L 64.068441 230.64587 L 64.068441 225.68287 z M 70.883529 225.68287 L 75.846533 225.68287 L 75.846533 230.64587 L 70.883529 230.64587 L 70.883529 225.68287 z M 77.698617 225.68287 L 82.661621 225.68287 L 82.661621 230.64587 L 77.698617 230.64587 L 77.698617 225.68287 z M 84.513704 225.68287 L 89.476709 225.68287 L 89.476709 230.64587 L 84.513704 230.64587 L 84.513704 225.68287 z M 91.328792 225.68287 L 96.291797 225.68287 L 96.291797 230.64587 L 91.328792 230.64587 L 91.328792 225.68287 z M 98.14388 225.68287 L 103.10688 225.68287 L 103.10688 230.64587 L 98.14388 230.64587 L 98.14388 225.68287 z M 104.95897 225.68287 L 109.92197 225.68287 L 109.92197 230.64587 L 104.95897 230.64587 L 104.95897 225.68287 z M 111.77406 225.68287 L 116.57273 225.68287 L 116.57273 230.64587 L 111.77406 230.64587 L 111.77406 225.68287 z M 118.42481 225.68287 L 123.38782 225.68287 L 123.38782 230.64587 L 118.42481 230.64587 L 118.42481 225.68287 z M 125.2399 225.68287 L 130.20291 225.68287 L 130.20291 230.64587 L 125.2399 230.64587 L 125.2399 225.68287 z M 132.05499 225.68287 L 137.01799 225.68287 L 137.01799 230.64587 L 132.05499 230.64587 L 132.05499 225.68287 z M 138.87008 225.68287 L 144.59531 225.68287 L 144.59531 230.64587 L 138.87008 230.64587 L 138.87008 225.68287 z M 23.894149 232.49795 L 28.140918 232.49795 L 28.140918 237.46096 L 23.894149 237.46096 L 23.894149 232.49795 z M 29.993001 232.49795 L 34.956006 232.49795 L 34.956006 237.46096 L 29.993001 237.46096 L 29.993001 232.49795 z M 36.808089 232.49795 L 41.771094 232.49795 L 41.771094 237.46096 L 36.808089 237.46096 L 36.808089 232.49795 z M 43.623177 232.49795 L 48.586182 232.49795 L 48.586182 237.46096 L 43.623177 237.46096 L 43.623177 232.49795 z M 50.438265 232.49795 L 55.40127 232.49795 L 55.40127 237.46096 L 50.438265 237.46096 L 50.438265 232.49795 z M 57.253353 232.49795 L 62.216357 232.49795 L 62.216357 237.46096 L 57.253353 237.46096 L 57.253353 232.49795 z M 64.068441 232.49795 L 69.031445 232.49795 L 69.031445 237.46096 L 64.068441 237.46096 L 64.068441 232.49795 z M 70.883529 232.49795 L 75.846533 232.49795 L 75.846533 237.46096 L 70.883529 237.46096 L 70.883529 232.49795 z M 77.698617 232.49795 L 82.661621 232.49795 L 82.661621 237.46096 L 77.698617 237.46096 L 77.698617 232.49795 z M 84.513704 232.49795 L 89.476709 232.49795 L 89.476709 237.46096 L 84.513704 237.46096 L 84.513704 232.49795 z M 91.328792 232.49795 L 96.291797 232.49795 L 96.291797 237.46096 L 91.328792 237.46096 L 91.328792 232.49795 z M 98.14388 232.49795 L 103.10688 232.49795 L 103.10688 237.46096 L 98.14388 237.46096 L 98.14388 232.49795 z M 104.95897 232.49795 L 109.92197 232.49795 L 109.92197 237.46096 L 104.95897 237.46096 L 104.95897 232.49795 z M 111.77406 232.49795 L 116.57273 232.49795 L 116.57273 237.46096 L 111.77406 237.46096 L 111.77406 232.49795 z M 118.42481 232.49795 L 123.38782 232.49795 L 123.38782 237.46096 L 118.42481 237.46096 L 118.42481 232.49795 z M 125.2399 232.49795 L 130.20291 232.49795 L 130.20291 237.46096 L 125.2399 237.46096 L 125.2399 232.49795 z M 132.05499 232.49795 L 137.01799 232.49795 L 137.01799 237.46096 L 132.05499 237.46096 L 132.05499 232.49795 z M 138.87008 232.49795 L 144.59531 232.49795 L 144.59531 237.46096 L 138.87008 237.46096 L 138.87008 232.49795 z M 23.894149 239.31304 L 28.140918 239.31304 L 28.140918 244.27605 L 23.894149 244.27605 L 23.894149 239.31304 z M 29.993001 239.31304 L 34.956006 239.31304 L 34.956006 244.27605 L 29.993001 244.27605 L 29.993001 239.31304 z M 36.808089 239.31304 L 41.771094 239.31304 L 41.771094 244.27605 L 36.808089 244.27605 L 36.808089 239.31304 z M 43.623177 239.31304 L 48.586182 239.31304 L 48.586182 244.27605 L 43.623177 244.27605 L 43.623177 239.31304 z M 50.438265 239.31304 L 55.40127 239.31304 L 55.40127 244.27605 L 50.438265 244.27605 L 50.438265 239.31304 z M 57.253353 239.31304 L 62.216357 239.31304 L 62.216357 244.27605 L 57.253353 244.27605 L 57.253353 239.31304 z M 64.068441 239.31304 L 69.031445 239.31304 L 69.031445 244.27605 L 64.068441 244.27605 L 64.068441 239.31304 z M 70.883529 239.31304 L 75.846533 239.31304 L 75.846533 244.27605 L 70.883529 244.27605 L 70.883529 239.31304 z M 77.698617 239.31304 L 82.661621 239.31304 L 82.661621 244.27605 L 77.698617 244.27605 L 77.698617 239.31304 z M 84.513704 239.31304 L 89.476709 239.31304 L 89.476709 244.27605 L 84.513704 244.27605 L 84.513704 239.31304 z M 91.328792 239.31304 L 96.291797 239.31304 L 96.291797 244.27605 L 91.328792 244.27605 L 91.328792 239.31304 z M 98.14388 239.31304 L 103.10688 239.31304 L 103.10688 244.27605 L 98.14388 244.27605 L 98.14388 239.31304 z M 104.95897 239.31304 L 109.92197 239.31304 L 109.92197 244.27605 L 104.95897 244.27605 L 104.95897 239.31304 z M 111.77406 239.31304 L 116.57273 239.31304 L 116.57273 244.27605 L 111.77406 244.27605 L 111.77406 239.31304 z M 118.42481 239.31304 L 123.38782 239.31304 L 123.38782 244.27605 L 118.42481 244.27605 L 118.42481 239.31304 z M 125.2399 239.31304 L 130.20291 239.31304 L 130.20291 244.27605 L 125.2399 244.27605 L 125.2399 239.31304 z M 132.05499 239.31304 L 137.01799 239.31304 L 137.01799 244.27605 L 132.05499 244.27605 L 132.05499 239.31304 z M 138.87008 239.31304 L 144.59531 239.31304 L 144.59531 244.27605 L 138.87008 244.27605 L 138.87008 239.31304 z M 23.894149 246.12813 L 28.140918 246.12813 L 28.140918 251.09113 L 23.894149 251.09113 L 23.894149 246.12813 z M 29.993001 246.12813 L 34.956006 246.12813 L 34.956006 251.09113 L 29.993001 251.09113 L 29.993001 246.12813 z M 36.808089 246.12813 L 41.771094 246.12813 L 41.771094 251.09113 L 36.808089 251.09113 L 36.808089 246.12813 z M 43.623177 246.12813 L 48.586182 246.12813 L 48.586182 251.09113 L 43.623177 251.09113 L 43.623177 246.12813 z M 50.438265 246.12813 L 55.40127 246.12813 L 55.40127 251.09113 L 50.438265 251.09113 L 50.438265 246.12813 z M 57.253353 246.12813 L 62.216357 246.12813 L 62.216357 251.09113 L 57.253353 251.09113 L 57.253353 246.12813 z M 64.068441 246.12813 L 69.031445 246.12813 L 69.031445 251.09113 L 64.068441 251.09113 L 64.068441 246.12813 z M 70.883529 246.12813 L 75.846533 246.12813 L 75.846533 251.09113 L 70.883529 251.09113 L 70.883529 246.12813 z M 77.698617 246.12813 L 82.661621 246.12813 L 82.661621 251.09113 L 77.698617 251.09113 L 77.698617 246.12813 z M 84.513704 246.12813 L 89.476709 246.12813 L 89.476709 251.09113 L 84.513704 251.09113 L 84.513704 246.12813 z M 91.328792 246.12813 L 96.291797 246.12813 L 96.291797 251.09113 L 91.328792 251.09113 L 91.328792 246.12813 z M 98.14388 246.12813 L 103.10688 246.12813 L 103.10688 251.09113 L 98.14388 251.09113 L 98.14388 246.12813 z M 104.95897 246.12813 L 109.92197 246.12813 L 109.92197 251.09113 L 104.95897 251.09113 L 104.95897 246.12813 z M 111.77406 246.12813 L 116.57273 246.12813 L 116.57273 251.09113 L 111.77406 251.09113 L 111.77406 246.12813 z M 118.42481 246.12813 L 123.38782 246.12813 L 123.38782 251.09113 L 118.42481 251.09113 L 118.42481 246.12813 z M 125.2399 246.12813 L 130.20291 246.12813 L 130.20291 251.09113 L 125.2399 251.09113 L 125.2399 246.12813 z M 132.05499 246.12813 L 137.01799 246.12813 L 137.01799 251.09113 L 132.05499 251.09113 L 132.05499 246.12813 z M 138.87008 246.12813 L 144.59531 246.12813 L 144.59531 251.09113 L 138.87008 251.09113 L 138.87008 246.12813 z M 23.894149 252.94322 L 28.140918 252.94322 L 28.140918 257.90622 L 23.894149 257.90622 L 23.894149 252.94322 z M 29.993001 252.94322 L 34.956006 252.94322 L 34.956006 257.90622 L 29.993001 257.90622 L 29.993001 252.94322 z M 36.808089 252.94322 L 41.771094 252.94322 L 41.771094 257.90622 L 36.808089 257.90622 L 36.808089 252.94322 z M 43.623177 252.94322 L 48.586182 252.94322 L 48.586182 257.90622 L 43.623177 257.90622 L 43.623177 252.94322 z M 50.438265 252.94322 L 55.40127 252.94322 L 55.40127 257.90622 L 50.438265 257.90622 L 50.438265 252.94322 z M 57.253353 252.94322 L 62.216357 252.94322 L 62.216357 257.90622 L 57.253353 257.90622 L 57.253353 252.94322 z M 64.068441 252.94322 L 69.031445 252.94322 L 69.031445 257.90622 L 64.068441 257.90622 L 64.068441 252.94322 z M 70.883529 252.94322 L 75.846533 252.94322 L 75.846533 257.90622 L 70.883529 257.90622 L 70.883529 252.94322 z M 77.698617 252.94322 L 82.661621 252.94322 L 82.661621 257.90622 L 77.698617 257.90622 L 77.698617 252.94322 z M 84.513704 252.94322 L 89.476709 252.94322 L 89.476709 257.90622 L 84.513704 257.90622 L 84.513704 252.94322 z M 91.328792 252.94322 L 96.291797 252.94322 L 96.291797 257.90622 L 91.328792 257.90622 L 91.328792 252.94322 z M 98.14388 252.94322 L 103.10688 252.94322 L 103.10688 257.90622 L 98.14388 257.90622 L 98.14388 252.94322 z M 104.95897 252.94322 L 109.92197 252.94322 L 109.92197 257.90622 L 104.95897 257.90622 L 104.95897 252.94322 z M 111.77406 252.94322 L 116.57273 252.94322 L 116.57273 257.90622 L 111.77406 257.90622 L 111.77406 252.94322 z M 118.42481 252.94322 L 123.38782 252.94322 L 123.38782 257.90622 L 118.42481 257.90622 L 118.42481 252.94322 z M 125.2399 252.94322 L 130.20291 252.94322 L 130.20291 257.90622 L 125.2399 257.90622 L 125.2399 252.94322 z M 132.05499 252.94322 L 137.01799 252.94322 L 137.01799 257.90622 L 132.05499 257.90622 L 132.05499 252.94322 z M 138.87008 252.94322 L 144.59531 252.94322 L 144.59531 257.90622 L 138.87008 257.90622 L 138.87008 252.94322 z M 23.894149 259.7583 L 28.140918 259.7583 L 28.140918 264.72131 L 23.894149 264.72131 L 23.894149 259.7583 z M 29.993001 259.7583 L 34.956006 259.7583 L 34.956006 264.72131 L 29.993001 264.72131 L 29.993001 259.7583 z M 36.808089 259.7583 L 41.771094 259.7583 L 41.771094 264.72131 L 36.808089 264.72131 L 36.808089 259.7583 z M 43.623177 259.7583 L 48.586182 259.7583 L 48.586182 264.72131 L 43.623177 264.72131 L 43.623177 259.7583 z M 50.438265 259.7583 L 55.40127 259.7583 L 55.40127 264.72131 L 50.438265 264.72131 L 50.438265 259.7583 z M 57.253353 259.7583 L 62.216357 259.7583 L 62.216357 264.72131 L 57.253353 264.72131 L 57.253353 259.7583 z M 64.068441 259.7583 L 69.031445 259.7583 L 69.031445 264.72131 L 64.068441 264.72131 L 64.068441 259.7583 z M 70.883529 259.7583 L 75.846533 259.7583 L 75.846533 264.72131 L 70.883529 264.72131 L 70.883529 259.7583 z M 77.698617 259.7583 L 82.661621 259.7583 L 82.661621 264.72131 L 77.698617 264.72131 L 77.698617 259.7583 z M 84.513704 259.7583 L 89.476709 259.7583 L 89.476709 264.72131 L 84.513704 264.72131 L 84.513704 259.7583 z M 91.328792 259.7583 L 96.291797 259.7583 L 96.291797 264.72131 L 91.328792 264.72131 L 91.328792 259.7583 z M 98.14388 259.7583 L 103.10688 259.7583 L 103.10688 264.72131 L 98.14388 264.72131 L 98.14388 259.7583 z M 104.95897 259.7583 L 109.92197 259.7583 L 109.92197 264.72131 L 104.95897 264.72131 L 104.95897 259.7583 z M 111.77406 259.7583 L 116.57273 259.7583 L 116.57273 264.72131 L 111.77406 264.72131 L 111.77406 259.7583 z M 118.42481 259.7583 L 123.38782 259.7583 L 123.38782 264.72131 L 118.42481 264.72131 L 118.42481 259.7583 z M 125.2399 259.7583 L 130.20291 259.7583 L 130.20291 264.72131 L 125.2399 264.72131 L 125.2399 259.7583 z M 132.05499 259.7583 L 137.01799 259.7583 L 137.01799 264.72131 L 132.05499 264.72131 L 132.05499 259.7583 z M 138.87008 259.7583 L 144.59531 259.7583 L 144.59531 264.72131 L 138.87008 264.72131 L 138.87008 259.7583 z M 23.894149 266.57339 L 28.140918 266.57339 L 28.140918 271.5364 L 23.894149 271.5364 L 23.894149 266.57339 z M 29.993001 266.57339 L 34.956006 266.57339 L 34.956006 271.5364 L 29.993001 271.5364 L 29.993001 266.57339 z M 36.808089 266.57339 L 41.771094 266.57339 L 41.771094 271.5364 L 36.808089 271.5364 L 36.808089 266.57339 z M 43.623177 266.57339 L 48.586182 266.57339 L 48.586182 271.5364 L 43.623177 271.5364 L 43.623177 266.57339 z M 50.438265 266.57339 L 55.40127 266.57339 L 55.40127 271.5364 L 50.438265 271.5364 L 50.438265 266.57339 z M 57.253353 266.57339 L 62.216357 266.57339 L 62.216357 271.5364 L 57.253353 271.5364 L 57.253353 266.57339 z M 64.068441 266.57339 L 69.031445 266.57339 L 69.031445 271.5364 L 64.068441 271.5364 L 64.068441 266.57339 z M 70.883529 266.57339 L 75.846533 266.57339 L 75.846533 271.5364 L 70.883529 271.5364 L 70.883529 266.57339 z M 77.698617 266.57339 L 82.661621 266.57339 L 82.661621 271.5364 L 77.698617 271.5364 L 77.698617 266.57339 z M 84.513704 266.57339 L 89.476709 266.57339 L 89.476709 271.5364 L 84.513704 271.5364 L 84.513704 266.57339 z M 91.328792 266.57339 L 96.291797 266.57339 L 96.291797 271.5364 L 91.328792 271.5364 L 91.328792 266.57339 z M 98.14388 266.57339 L 103.10688 266.57339 L 103.10688 271.5364 L 98.14388 271.5364 L 98.14388 266.57339 z M 104.95897 266.57339 L 109.92197 266.57339 L 109.92197 271.5364 L 104.95897 271.5364 L 104.95897 266.57339 z M 111.77406 266.57339 L 116.57273 266.57339 L 116.57273 271.5364 L 111.77406 271.5364 L 111.77406 266.57339 z M 118.42481 266.57339 L 123.38782 266.57339 L 123.38782 271.5364 L 118.42481 271.5364 L 118.42481 266.57339 z M 125.2399 266.57339 L 130.20291 266.57339 L 130.20291 271.5364 L 125.2399 271.5364 L 125.2399 266.57339 z M 132.05499 266.57339 L 137.01799 266.57339 L 137.01799 271.5364 L 132.05499 271.5364 L 132.05499 266.57339 z M 138.87008 266.57339 L 144.59531 266.57339 L 144.59531 271.5364 L 138.87008 271.5364 L 138.87008 266.57339 z M 23.894149 273.38848 L 28.140918 273.38848 L 28.140918 278.35149 L 23.894149 278.35149 L 23.894149 273.38848 z M 29.993001 273.38848 L 34.956006 273.38848 L 34.956006 278.35149 L 29.993001 278.35149 L 29.993001 273.38848 z M 36.808089 273.38848 L 41.771094 273.38848 L 41.771094 278.35149 L 36.808089 278.35149 L 36.808089 273.38848 z M 43.623177 273.38848 L 48.586182 273.38848 L 48.586182 278.35149 L 43.623177 278.35149 L 43.623177 273.38848 z M 50.438265 273.38848 L 55.40127 273.38848 L 55.40127 278.35149 L 50.438265 278.35149 L 50.438265 273.38848 z M 57.253353 273.38848 L 62.216357 273.38848 L 62.216357 278.35149 L 57.253353 278.35149 L 57.253353 273.38848 z M 64.068441 273.38848 L 69.031445 273.38848 L 69.031445 278.35149 L 64.068441 278.35149 L 64.068441 273.38848 z M 70.883529 273.38848 L 75.846533 273.38848 L 75.846533 278.35149 L 70.883529 278.35149 L 70.883529 273.38848 z M 77.698617 273.38848 L 82.661621 273.38848 L 82.661621 278.35149 L 77.698617 278.35149 L 77.698617 273.38848 z M 84.513704 273.38848 L 89.476709 273.38848 L 89.476709 278.35149 L 84.513704 278.35149 L 84.513704 273.38848 z M 91.328792 273.38848 L 96.291797 273.38848 L 96.291797 278.35149 L 91.328792 278.35149 L 91.328792 273.38848 z M 98.14388 273.38848 L 103.10688 273.38848 L 103.10688 278.35149 L 98.14388 278.35149 L 98.14388 273.38848 z M 104.95897 273.38848 L 109.92197 273.38848 L 109.92197 278.35149 L 104.95897 278.35149 L 104.95897 273.38848 z M 111.77406 273.38848 L 116.57273 273.38848 L 116.57273 278.35149 L 111.77406 278.35149 L 111.77406 273.38848 z M 118.42481 273.38848 L 123.38782 273.38848 L 123.38782 278.35149 L 118.42481 278.35149 L 118.42481 273.38848 z M 125.2399 273.38848 L 130.20291 273.38848 L 130.20291 278.35149 L 125.2399 278.35149 L 125.2399 273.38848 z M 132.05499 273.38848 L 137.01799 273.38848 L 137.01799 278.35149 L 132.05499 278.35149 L 132.05499 273.38848 z M 138.87008 273.38848 L 144.59531 273.38848 L 144.59531 278.35149 L 138.87008 278.35149 L 138.87008 273.38848 z M 23.894149 280.20357 L 28.140918 280.20357 L 28.140918 285.16657 L 23.894149 285.16657 L 23.894149 280.20357 z M 29.993001 280.20357 L 34.956006 280.20357 L 34.956006 285.16657 L 29.993001 285.16657 L 29.993001 280.20357 z M 36.808089 280.20357 L 41.771094 280.20357 L 41.771094 285.16657 L 36.808089 285.16657 L 36.808089 280.20357 z M 43.623177 280.20357 L 48.586182 280.20357 L 48.586182 285.16657 L 43.623177 285.16657 L 43.623177 280.20357 z M 50.438265 280.20357 L 55.40127 280.20357 L 55.40127 285.16657 L 50.438265 285.16657 L 50.438265 280.20357 z M 57.253353 280.20357 L 62.216357 280.20357 L 62.216357 285.16657 L 57.253353 285.16657 L 57.253353 280.20357 z M 64.068441 280.20357 L 69.031445 280.20357 L 69.031445 285.16657 L 64.068441 285.16657 L 64.068441 280.20357 z M 70.883529 280.20357 L 75.846533 280.20357 L 75.846533 285.16657 L 70.883529 285.16657 L 70.883529 280.20357 z M 77.698617 280.20357 L 82.661621 280.20357 L 82.661621 285.16657 L 77.698617 285.16657 L 77.698617 280.20357 z M 84.513704 280.20357 L 89.476709 280.20357 L 89.476709 285.16657 L 84.513704 285.16657 L 84.513704 280.20357 z M 91.328792 280.20357 L 96.291797 280.20357 L 96.291797 285.16657 L 91.328792 285.16657 L 91.328792 280.20357 z M 98.14388 280.20357 L 103.10688 280.20357 L 103.10688 285.16657 L 98.14388 285.16657 L 98.14388 280.20357 z M 104.95897 280.20357 L 109.92197 280.20357 L 109.92197 285.16657 L 104.95897 285.16657 L 104.95897 280.20357 z M 111.77406 280.20357 L 116.57273 280.20357 L 116.57273 285.16657 L 111.77406 285.16657 L 111.77406 280.20357 z M 118.42481 280.20357 L 123.38782 280.20357 L 123.38782 285.16657 L 118.42481 285.16657 L 118.42481 280.20357 z M 125.2399 280.20357 L 130.20291 280.20357 L 130.20291 285.16657 L 125.2399 285.16657 L 125.2399 280.20357 z M 132.05499 280.20357 L 137.01799 280.20357 L 137.01799 285.16657 L 132.05499 285.16657 L 132.05499 280.20357 z M 138.87008 280.20357 L 144.59531 280.20357 L 144.59531 285.16657 L 138.87008 285.16657 L 138.87008 280.20357 z M 23.894149 287.01866 L 28.140918 287.01866 L 28.140918 291.98166 L 23.894149 291.98166 L 23.894149 287.01866 z M 29.993001 287.01866 L 34.956006 287.01866 L 34.956006 291.98166 L 29.993001 291.98166 L 29.993001 287.01866 z M 36.808089 287.01866 L 41.771094 287.01866 L 41.771094 291.98166 L 36.808089 291.98166 L 36.808089 287.01866 z M 43.623177 287.01866 L 48.586182 287.01866 L 48.586182 291.98166 L 43.623177 291.98166 L 43.623177 287.01866 z M 50.438265 287.01866 L 55.40127 287.01866 L 55.40127 291.98166 L 50.438265 291.98166 L 50.438265 287.01866 z M 57.253353 287.01866 L 62.216357 287.01866 L 62.216357 291.98166 L 57.253353 291.98166 L 57.253353 287.01866 z M 64.068441 287.01866 L 69.031445 287.01866 L 69.031445 291.98166 L 64.068441 291.98166 L 64.068441 287.01866 z M 70.883529 287.01866 L 75.846533 287.01866 L 75.846533 291.98166 L 70.883529 291.98166 L 70.883529 287.01866 z M 77.698617 287.01866 L 82.661621 287.01866 L 82.661621 291.98166 L 77.698617 291.98166 L 77.698617 287.01866 z M 84.513704 287.01866 L 89.476709 287.01866 L 89.476709 291.98166 L 84.513704 291.98166 L 84.513704 287.01866 z M 91.328792 287.01866 L 96.291797 287.01866 L 96.291797 291.98166 L 91.328792 291.98166 L 91.328792 287.01866 z M 98.14388 287.01866 L 103.10688 287.01866 L 103.10688 291.98166 L 98.14388 291.98166 L 98.14388 287.01866 z M 104.95897 287.01866 L 109.92197 287.01866 L 109.92197 291.98166 L 104.95897 291.98166 L 104.95897 287.01866 z M 111.77406 287.01866 L 116.57273 287.01866 L 116.57273 291.98166 L 111.77406 291.98166 L 111.77406 287.01866 z M 118.42481 287.01866 L 123.38782 287.01866 L 123.38782 291.98166 L 118.42481 291.98166 L 118.42481 287.01866 z M 125.2399 287.01866 L 130.20291 287.01866 L 130.20291 291.98166 L 125.2399 291.98166 L 125.2399 287.01866 z M 132.05499 287.01866 L 137.01799 287.01866 L 137.01799 291.98166 L 132.05499 291.98166 L 132.05499 287.01866 z M 138.87008 287.01866 L 144.59531 287.01866 L 144.59531 291.98166 L 138.87008 291.98166 L 138.87008 287.01866 z M 23.894149 293.83374 L 28.140918 293.83374 L 28.140918 298.79675 L 23.894149 298.79675 L 23.894149 293.83374 z M 29.993001 293.83374 L 34.956006 293.83374 L 34.956006 298.79675 L 29.993001 298.79675 L 29.993001 293.83374 z M 36.808089 293.83374 L 41.771094 293.83374 L 41.771094 298.79675 L 36.808089 298.79675 L 36.808089 293.83374 z M 43.623177 293.83374 L 48.586182 293.83374 L 48.586182 298.79675 L 43.623177 298.79675 L 43.623177 293.83374 z M 50.438265 293.83374 L 55.40127 293.83374 L 55.40127 298.79675 L 50.438265 298.79675 L 50.438265 293.83374 z M 57.253353 293.83374 L 62.216357 293.83374 L 62.216357 298.79675 L 57.253353 298.79675 L 57.253353 293.83374 z M 64.068441 293.83374 L 69.031445 293.83374 L 69.031445 298.79675 L 64.068441 298.79675 L 64.068441 293.83374 z M 70.883529 293.83374 L 75.846533 293.83374 L 75.846533 298.79675 L 70.883529 298.79675 L 70.883529 293.83374 z M 77.698617 293.83374 L 82.661621 293.83374 L 82.661621 298.79675 L 77.698617 298.79675 L 77.698617 293.83374 z M 84.513704 293.83374 L 89.476709 293.83374 L 89.476709 298.79675 L 84.513704 298.79675 L 84.513704 293.83374 z M 91.328792 293.83374 L 96.291797 293.83374 L 96.291797 298.79675 L 91.328792 298.79675 L 91.328792 293.83374 z M 98.14388 293.83374 L 103.10688 293.83374 L 103.10688 298.79675 L 98.14388 298.79675 L 98.14388 293.83374 z M 104.95897 293.83374 L 109.92197 293.83374 L 109.92197 298.79675 L 104.95897 298.79675 L 104.95897 293.83374 z M 111.77406 293.83374 L 116.57273 293.83374 L 116.57273 298.79675 L 111.77406 298.79675 L 111.77406 293.83374 z M 118.42481 293.83374 L 123.38782 293.83374 L 123.38782 298.79675 L 118.42481 298.79675 L 118.42481 293.83374 z M 125.2399 293.83374 L 130.20291 293.83374 L 130.20291 298.79675 L 125.2399 298.79675 L 125.2399 293.83374 z M 132.05499 293.83374 L 137.01799 293.83374 L 137.01799 298.79675 L 132.05499 298.79675 L 132.05499 293.83374 z M 138.87008 293.83374 L 144.59531 293.83374 L 144.59531 298.79675 L 138.87008 298.79675 L 138.87008 293.83374 z M 23.894149 300.64883 L 28.140918 300.64883 L 28.140918 304.95503 L 23.894149 304.95503 L 23.894149 300.64883 z M 29.993001 300.64883 L 34.956006 300.64883 L 34.956006 304.95503 L 29.993001 304.95503 L 29.993001 300.64883 z M 36.808089 300.64883 L 41.771094 300.64883 L 41.771094 304.95503 L 36.808089 304.95503 L 36.808089 300.64883 z M 43.623177 300.64883 L 48.586182 300.64883 L 48.586182 304.95503 L 43.623177 304.95503 L 43.623177 300.64883 z M 50.438265 300.64883 L 55.40127 300.64883 L 55.40127 304.95503 L 50.438265 304.95503 L 50.438265 300.64883 z M 57.253353 300.64883 L 62.216357 300.64883 L 62.216357 304.95503 L 57.253353 304.95503 L 57.253353 300.64883 z M 64.068441 300.64883 L 69.031445 300.64883 L 69.031445 304.95503 L 64.068441 304.95503 L 64.068441 300.64883 z M 70.883529 300.64883 L 75.846533 300.64883 L 75.846533 304.95503 L 70.883529 304.95503 L 70.883529 300.64883 z M 77.698617 300.64883 L 82.661621 300.64883 L 82.661621 304.95503 L 77.698617 304.95503 L 77.698617 300.64883 z M 84.513704 300.64883 L 89.476709 300.64883 L 89.476709 304.95503 L 84.513704 304.95503 L 84.513704 300.64883 z M 91.328792 300.64883 L 96.291797 300.64883 L 96.291797 304.95503 L 91.328792 304.95503 L 91.328792 300.64883 z M 98.14388 300.64883 L 103.10688 300.64883 L 103.10688 304.95503 L 98.14388 304.95503 L 98.14388 300.64883 z M 104.95897 300.64883 L 109.92197 300.64883 L 109.92197 304.95503 L 104.95897 304.95503 L 104.95897 300.64883 z M 111.77406 300.64883 L 116.57273 300.64883 L 116.57273 304.95503 L 111.77406 304.95503 L 111.77406 300.64883 z M 118.42481 300.64883 L 123.38782 300.64883 L 123.38782 304.95503 L 118.42481 304.95503 L 118.42481 300.64883 z M 125.2399 300.64883 L 130.20291 300.64883 L 130.20291 304.95503 L 125.2399 304.95503 L 125.2399 300.64883 z M 132.05499 300.64883 L 137.01799 300.64883 L 137.01799 304.95503 L 132.05499 304.95503 L 132.05499 300.64883 z M 138.87008 300.64883 L 144.59531 300.64883 L 144.59531 304.95503 L 138.87008 304.95503 L 138.87008 300.64883 z "
       inkscape:export-filename="../../../../../../Documents/banner.svg"
       inkscape:export-xdpi="96"
       inkscape:export-ydpi="96" />
  </g>
</svg>
