<?xml version="1.0" encoding="UTF-8" standalone="no"?>
<svg
   height="100%"
   style="fill-rule:evenodd;clip-rule:evenodd;stroke-linejoin:round;stroke-miterlimit:2;"
   version="1.1"
   viewBox="0 0 512 512"
   width="100%"
   xml:space="preserve"
   id="svg1539"
   sodipodi:docname="linkedInLogo.svg"
   inkscape:version="1.2.1 (9c6d41e, 2022-07-14)"
   xmlns:inkscape="http://www.inkscape.org/namespaces/inkscape"
   xmlns:sodipodi="http://sodipodi.sourceforge.net/DTD/sodipodi-0.dtd"
   xmlns="http://www.w3.org/2000/svg"
   xmlns:svg="http://www.w3.org/2000/svg"><defs
     id="defs1543" /><sodipodi:namedview
     id="namedview1541"
     pagecolor="#505050"
     bordercolor="#eeeeee"
     borderopacity="1"
     inkscape:showpageshadow="0"
     inkscape:pageopacity="0"
     inkscape:pagecheckerboard="0"
     inkscape:deskcolor="#505050"
     showgrid="false"
     inkscape:zoom="0.4609375"
     inkscape:cx="-21.694915"
     inkscape:cy="256"
     inkscape:window-width="1309"
     inkscape:window-height="456"
     inkscape:window-x="0"
     inkscape:window-y="25"
     inkscape:window-maximized="0"
     inkscape:current-layer="svg1539" /><path
     d="M256,0c141.29,0 256,114.71 256,256c0,141.29 -114.71,256 -256,256c-141.29,0 -256,-114.71 -256,-256c0,-141.29 114.71,-256 256,-256Zm-80.037,399.871l0,-199.921l-66.464,0l0,199.921l66.464,0Zm239.62,0l0,-114.646c0,-61.409 -32.787,-89.976 -76.509,-89.976c-35.255,0 -51.047,19.389 -59.889,33.007l0,-28.306l-66.447,0c0.881,18.757 0,199.921 0,199.921l66.446,0l0,-111.65c0,-5.976 0.43,-11.95 2.191,-16.221c4.795,-11.935 15.737,-24.299 34.095,-24.299c24.034,0 33.663,18.34 33.663,45.204l0,106.966l66.45,0Zm-272.403,-296.321c-22.74,0 -37.597,14.95 -37.597,34.545c0,19.182 14.405,34.544 36.717,34.544l0.429,0c23.175,0 37.6,-15.362 37.6,-34.544c-0.43,-19.595 -14.424,-34.545 -37.149,-34.545Z"
     id="path1537"
     style="fill:#ffffff" /></svg>
