<?xml version="1.0" encoding="UTF-8" standalone="no"?>
<!-- Created with Inkscape (http://www.inkscape.org/) -->

<svg
   width="210mm"
   height="297mm"
   viewBox="0 0 210 297"
   version="1.1"
   id="svg5"
   inkscape:version="1.2.1 (9c6d41e, 2022-07-14)"
   sodipodi:docname="paintPallette.svg"
   xmlns:inkscape="http://www.inkscape.org/namespaces/inkscape"
   xmlns:sodipodi="http://sodipodi.sourceforge.net/DTD/sodipodi-0.dtd"
   xmlns="http://www.w3.org/2000/svg"
   xmlns:svg="http://www.w3.org/2000/svg">
  <sodipodi:namedview
     id="namedview7"
     pagecolor="#505050"
     bordercolor="#eeeeee"
     borderopacity="1"
     inkscape:showpageshadow="0"
     inkscape:pageopacity="0"
     inkscape:pagecheckerboard="0"
     inkscape:deskcolor="#505050"
     inkscape:document-units="mm"
     showgrid="false"
     inkscape:zoom="1"
     inkscape:cx="515.5"
     inkscape:cy="634.5"
     inkscape:window-width="1728"
     inkscape:window-height="971"
     inkscape:window-x="0"
     inkscape:window-y="38"
     inkscape:window-maximized="0"
     inkscape:current-layer="layer1" />
  <defs
     id="defs2" />
  <g
     inkscape:label="Layer 1"
     inkscape:groupmode="layer"
     id="layer1">
    <path
       id="path604"
       style="fill:#ff00ff;stroke-width:2.64584;paint-order:fill markers stroke"
       d="M 154.60297 32.08693 C 153.43207 32.089209 153.3255 33.084205 151.81709 33.333883 C 150.86652 33.491221 148.96136 33.808797 148.16615 34.299198 C 146.72399 35.188569 147.76961 35.767389 146.82876 37.125382 C 146.30998 37.874186 145.24756 39.662463 145.08417 40.555664 C 144.78786 42.175539 145.93675 41.437163 146.33009 43.072306 C 146.54699 43.973929 147.17205 46.483768 147.7362 47.256547 C 148.75931 48.658023 148.30331 48.013666 151.34063 48.741211 C 152.29596 48.970054 153.60765 50.27683 154.56886 50.476506 C 156.31207 50.83862 156.3295 49.688531 158.0534 49.403186 C 159.00397 49.245844 160.78459 48.819751 161.5798 48.32935 C 163.02195 47.439984 163.04811 47.465259 163.98896 46.107263 C 164.50774 45.358461 164.49891 42.966088 164.6623 42.072884 C 164.95861 40.453009 164.82879 40.342343 164.43544 38.707198 C 164.21855 37.805573 162.5739 36.144779 162.00975 35.372001 C 160.98664 33.970517 160.18562 35.212827 158.68851 34.258374 C 157.86299 33.732086 156.13829 32.351713 155.17709 32.152043 C 154.95919 32.106778 154.77024 32.086605 154.60297 32.08693 z M 152.53953 34.818547 A 8.7195972 6.6679416 0 0 0 149.57537 39.821859 A 8.7195972 6.6679416 0 0 0 158.29473 46.490186 A 8.7195972 6.6679416 0 0 0 161.61236 45.98479 A 8.450473 6.7152314 0 0 1 156.08815 47.625 A 8.450473 6.7152314 0 0 1 147.6375 40.909648 A 8.450473 6.7152314 0 0 1 152.53953 34.818547 z " />
    <path
       id="path677"
       style="fill:#2b0000;stroke-width:2.64583;paint-order:fill markers stroke"
       d="m 73.523157,14.53658 c -1.71601,0.002 -3.39225,0.01461 -4.99607,0.01447 -32.58592,0 -59.0020903,21.559663 -59.0020903,48.154683 0,26.59502 26.4161703,48.154687 59.0020903,48.154687 32.585923,0 59.797653,-19.808347 59.795833,-46.403377 -1.8e-4,-2.56254 1.08649,-12.50548 -4.72271,-16.40623 -10.34463,-6.94619 -24.879813,-1.52223 -25.704373,-10.36061 8.9e-4,-5.13367 8.374463,-8.998273 6.181533,-13.412615 C 99.488487,15.040204 85.535237,14.522406 73.523157,14.53658 Z m 4.61311,15.956649 c 0.68433,-0.03302 1.37414,-0.01697 2.05948,0.04791 5.77752,0.547307 10.03446,4.375984 9.50834,8.551774 -0.52596,4.17608 -5.63636,7.11803 -11.41429,6.57097 -5.77777,-0.54707 -10.03508,-4.37582 -9.50898,-8.55178 0.45439,-3.60747 4.37144,-6.378736 9.35545,-6.618869 z"
       sodipodi:nodetypes="scsssscsscccccc" />
    <path
       id="path684"
       style="fill:#ffffff;stroke-width:2.64583;paint-order:fill markers stroke"
       d="m 209.10362,100.75413 c -1.67695,-0.32853 -3.3173,-0.64005 -4.88419,-0.948841 -31.83602,-6.272009 -62.24293,7.650721 -67.91563,31.097141 -5.67269,23.44643 15.5369,47.53811 47.37292,53.81012 31.83602,6.27201 62.64663,-5.95361 68.31755,-29.40039 0.54641,-2.2592 3.72889,-10.81583 -1.11459,-15.37289 -8.62495,-8.11493 -23.98256,-6.13079 -22.90293,-14.0815 1.09588,-4.52571 10.10107,-6.32108 8.90018,-10.6349 -2.51295,-9.02701 -16.03465,-12.16917 -27.77332,-14.46871 z m 1.10341,14.95545 c 0.67562,0.10263 1.34614,0.2495 2.00187,0.43863 5.52782,1.59455 8.87014,5.78931 7.46543,9.36946 -1.40461,3.58043 -7.02492,5.19045 -12.55319,3.59604 -5.52812,-1.59438 -8.87079,-5.78927 -7.46606,-9.36957 1.2134,-3.09292 5.63142,-4.78216 10.55195,-4.03456 z"
       sodipodi:nodetypes="scsssscsscccccc"
       inkscape:export-filename="paintpallette.png"
       inkscape:export-xdpi="96"
       inkscape:export-ydpi="96" />
    <path
       id="path738"
       style="fill:#241c1c;stroke-width:2.64583;paint-order:fill markers stroke"
       d="m 267.78106,114.56459 c -0.5028,11.86931 -2.40306,26.37336 -2.40397,41.29218 0,37.69085 2.42838,68.2453 5.42395,68.24531 2.99557,-1e-5 5.42396,-30.55446 5.42396,-68.24531 -1e-5,-14.91424 -1.8988,-29.41783 -2.40081,-41.29218 z"
       sodipodi:nodetypes="ccsscc" />
    <rect
       style="fill:#241c1c;stroke-width:2.64583;paint-order:fill markers stroke"
       id="rect796"
       width="6.8791666"
       height="9.5249996"
       x="267.49377"
       y="103.1875" />
    <path
       id="path798"
       style="fill:#241c1c;stroke-width:2.64583;paint-order:fill markers stroke"
       d="m 279.13541,86.64634 c 0,8.697054 -3.6722,15.74741 -8.20208,15.74741 -4.52989,0 -8.20209,-7.050356 -8.20209,-15.74741 0,-8.697052 10.76366,-23.33929 11.06153,-19.706756 1.19645,14.590662 5.34264,11.009704 5.34264,19.706756 z"
       sodipodi:nodetypes="sssss" />
    <path
       id="path801"
       style="fill:#000000;stroke-width:2.64583;paint-order:fill markers stroke"
       d="m 111.19886,137.11871 c -1.13507,0.36564 -3.04565,7.91128 -1.29589,11.75257 1.96465,4.31304 5.58986,7.22211 8.09714,6.49761 2.5073,-0.72451 2.94721,-4.80825 0.98256,-9.12129 -1.96465,-4.31304 -3.45076,-1.87403 -7.409,-8.91846 -0.1078,-0.19181 -0.23545,-0.2553 -0.37482,-0.21043 z m 5.07677,19.19394 2.15168,4.72363 3.80762,-1.10027 -2.15166,-4.72364 z m 2.72908,5.59616 c 2.40296,5.96664 4.62758,13.46338 7.99721,20.86207 8.51428,18.69165 16.76064,33.45592 18.4187,32.9768 1.65805,-0.47912 -3.90008,-16.02019 -12.41436,-34.71184 -3.36911,-7.39626 -7.69645,-14.28513 -10.6567,-20.09357 z" />
    <path
       id="path808"
       style="fill:#241c1c;stroke-width:2.64583;paint-order:fill markers stroke"
       d="m 322.68213,112.97709 c -0.5028,4.90254 -2.40306,10.89334 -2.40397,17.05546 0,15.56796 2.42838,28.18827 5.42395,28.18828 2.99557,-1e-5 5.42396,-12.62032 5.42396,-28.18828 -1e-5,-6.16023 -1.8988,-12.15084 -2.40081,-17.05546 z"
       sodipodi:nodetypes="ccsscc" />
    <rect
       style="fill:#241c1c;stroke-width:2.64583;paint-order:fill markers stroke"
       id="rect810"
       width="24.341667"
       height="9.5249996"
       x="313.53128"
       y="101.6" />
    <path
       id="rect830"
       style="fill:#241c1c;stroke-width:2.64583;paint-order:fill markers stroke"
       d="m 313.53128,83.87291 c 0,0 3.7005,1.852083 5.82084,1.852083 2.12034,0 4.22965,-1.852083 6.34999,-1.852083 2.12034,0 3.96508,2.116666 6.08542,2.116666 2.12034,0 6.08542,-2.116666 6.08542,-2.116666 v 16.66875 h -24.34167 z"
       sodipodi:nodetypes="cssscccc" />
    <path
       id="path833"
       style="fill:#000000;stroke-width:2.64583;paint-order:fill markers stroke"
       d="m 86.064522,182.69953 9.636211,8.08034 13.770347,-16.42182 -9.636215,-8.08034 c 0,0 -1.019441,3.70107 -2.218945,5.13154 -1.1995,1.43046 -3.466733,1.64891 -4.666229,3.07937 -1.199492,1.43046 -1.322077,3.7513 -2.521572,5.18177 -1.199493,1.43045 -4.363597,3.02914 -4.363597,3.02914 z m 10.248034,8.59338 5.506404,4.61734 13.77034,-16.42182 -5.5064,-4.61734 z m 11.753844,-0.65836 c 2.54971,2.71575 4.93789,6.90177 8.4997,9.88953 8.99984,7.54673 17.66953,12.02635 19.36415,10.00543 1.69462,-2.02092 -4.22754,-9.77712 -13.22737,-17.32384 -3.56123,-2.98622 -8.09853,-4.60911 -11.21787,-6.648 z" />
    <path
       id="path891"
       style="fill:#ffffff;stroke-width:2.64583;paint-order:fill markers stroke"
       d="m 209.10362,100.75413 c -1.67695,-0.32853 -3.3173,-0.64005 -4.88419,-0.948841 -31.83602,-6.272009 -62.24293,7.650721 -67.91563,31.097141 -5.67269,23.44643 15.5369,47.53811 47.37292,53.81012 31.83602,6.27201 62.64663,-5.95361 68.31755,-29.40039 0.54641,-2.2592 3.72889,-10.81583 -1.11459,-15.37289 -8.62495,-8.11493 -23.98256,-6.13079 -22.90293,-14.0815 1.09588,-4.52571 10.10107,-6.32108 8.90018,-10.6349 -2.51295,-9.02701 -16.03465,-12.16917 -27.77332,-14.46871 z m 1.10341,14.95545 c 0.67562,0.10263 1.34614,0.2495 2.00187,0.43863 5.52782,1.59455 8.87014,5.78931 7.46543,9.36946 -1.40461,3.58043 -7.02492,5.19045 -12.55319,3.59604 -5.52812,-1.59438 -8.87079,-5.78927 -7.46606,-9.36957 1.2134,-3.09292 5.63142,-4.78216 10.55195,-4.03456 z"
       sodipodi:nodetypes="scsssscsscccccc"
       inkscape:export-filename="paintpallette.png"
       inkscape:export-xdpi="96"
       inkscape:export-ydpi="96" />
  </g>
</svg>
