<?xml version="1.0" encoding="UTF-8" standalone="no"?>
<!-- Created with Inkscape (http://www.inkscape.org/) -->

<svg
   width="28.099783mm"
   height="45.231049mm"
   viewBox="0 0 28.099783 45.231049"
   version="1.1"
   id="svg5"
   xml:space="preserve"
   xmlns="http://www.w3.org/2000/svg"
   xmlns:svg="http://www.w3.org/2000/svg"><defs
     id="defs2" /><g
     id="layer1"
     transform="translate(25.135419,-192.24627)"><g
       aria-label="S"
       id="text318"
       style="font-size:31.4105px;font-family:Blanka;-inkscape-font-specification:'Blanka, Normal';stroke-width:1.17789"><path
         d="m -4.3856786,212.37408 c -3.2227116,-1.52654 -6.3888844,-1.52654 -6.6715784,-1.52654 -2.883479,0 -5.65388,-1.69617 -5.65388,-4.97542 0,-3.61848 2.544246,-5.48426 5.65388,-5.48426 2.9400176,0 5.4277248,1.52655 5.5408024,4.74926 0,0.16961 0.282694,0.45231 0.6219268,0.45231 h 7.0673499 c 0.3957716,0 0.6784656,-0.2827 0.6219268,-0.45231 -0.1130776,-7.68928 -6.1061903,-12.89085 -13.8520059,-12.89085 -7.236966,0 -14.078161,5.14503 -14.078161,13.62585 0,5.25811 2.657324,9.27236 7.350044,11.42084 3.27925,1.52655 6.332345,1.52655 6.728117,1.52655 2.5442461,0.11307 5.65388,2.14847 5.65388,5.48426 0,2.99656 -2.6573236,5.03195 -5.65388,5.03195 0,0 0,0 -0.05654,0 v 8.14159 c 0.05654,0 0.05654,0 0.05654,0 7.2369664,0 14.0216223,-4.69272 14.0216223,-13.17354 0,-5.31465 -2.60078476,-9.72467 -7.3500439,-11.92969 z"
         style="font-size:56.5388px"
         id="path320" /></g></g></svg>
